{
	"asset":{
		"generator":"Khronos glTF Blender I/O v3.5.30",
		"version":"2.0"
	},
	"extensionsUsed":[
		"KHR_materials_specular",
		"KHR_materials_ior"
	],
	"scene":0,
	"scenes":[
		{
			"name":"Scene",
			"nodes":[
				0,
				1
			]
		}
	],
	"nodes":[
		{
			"mesh":0,
			"name":"Cube",
			"scale":[
				1.8511192798614502,
				0.8205455541610718,
				1.8309004306793213
			]
		},
		{
			"mesh":1,
			"name":"Plane",
			"scale":[
				1.5562958717346191,
				1,
				1.4525587558746338
			],
			"translation":[
				0,
				0.48278379440307617,
				0
			]
		}
	],
	"materials":[
		{
			"doubleSided":true,
			"extensions":{
				"KHR_materials_specular":{
					"specularColorFactor":[
						1.703065995055731,
						1.703065995055731,
						1.703065995055731
					]
				},
				"KHR_materials_ior":{
					"ior":1.4500000476837158
				}
			},
			"name":"Material.001",
			"pbrMetallicRoughness":{
				"baseColorFactor":[
					0.6319697499275208,
					0.6294772028923035,
					0.6738475561141968,
					1
				],
				"metallicFactor":0,
				"roughnessFactor":0.12992125749588013
			}
		},
		{
			"alphaMode":"BLEND",
			"doubleSided":true,
			"name":"Material.002",
			"pbrMetallicRoughness":{}
		}
	],
	"meshes":[
		{
			"name":"Cube.001",
			"primitives":[
				{
					"attributes":{
						"POSITION":0,
						"TEXCOORD_0":1,
						"NORMAL":2
					},
					"indices":3,
					"material":0
				}
			]
		},
		{
			"name":"Plane",
			"primitives":[
				{
					"attributes":{
						"POSITION":4,
						"TEXCOORD_0":5,
						"NORMAL":6
					},
					"indices":7,
					"material":1
				}
			]
		}
	],
	"accessors":[
		{
			"bufferView":0,
			"componentType":5126,
			"count":660,
			"max":[
				1,
				1,
				1.2906138896942139
			],
			"min":[
				-1.2843000888824463,
				-0.5978204607963562,
				-1
			],
			"type":"VEC3"
		},
		{
			"bufferView":1,
			"componentType":5126,
			"count":660,
			"type":"VEC2"
		},
		{
			"bufferView":2,
			"componentType":5126,
			"count":660,
			"type":"VEC3"
		},
		{
			"bufferView":3,
			"componentType":5123,
			"count":3492,
			"type":"SCALAR"
		},
		{
			"bufferView":4,
			"componentType":5126,
			"count":4,
			"max":[
				1,
				0,
				1
			],
			"min":[
				-1,
				0,
				-1
			],
			"type":"VEC3"
		},
		{
			"bufferView":5,
			"componentType":5126,
			"count":4,
			"type":"VEC2"
		},
		{
			"bufferView":6,
			"componentType":5126,
			"count":4,
			"type":"VEC3"
		},
		{
			"bufferView":7,
			"componentType":5123,
			"count":6,
			"type":"SCALAR"
		}
	],
	"bufferViews":[
		{
			"buffer":0,
			"byteLength":7920,
			"byteOffset":0,
			"target":34962
		},
		{
			"buffer":0,
			"byteLength":5280,
			"byteOffset":7920,
			"target":34962
		},
		{
			"buffer":0,
			"byteLength":7920,
			"byteOffset":13200,
			"target":34962
		},
		{
			"buffer":0,
			"byteLength":6984,
			"byteOffset":21120,
			"target":34963
		},
		{
			"buffer":0,
			"byteLength":48,
			"byteOffset":28104,
			"target":34962
		},
		{
			"buffer":0,
			"byteLength":32,
			"byteOffset":28152,
			"target":34962
		},
		{
			"buffer":0,
			"byteLength":48,
			"byteOffset":28184,
			"target":34962
		},
		{
			"buffer":0,
			"byteLength":12,
			"byteOffset":28232,
			"target":34963
		}
	],
	"buffers":[
		{
			"byteLength":28244,
			"uri":"data:application/octet-stream;base64,"
		}
	]
}
