{
	"asset":{
		"generator":"Khronos glTF Blender I/O v3.5.30",
		"version":"2.0"
	},
	"extensionsUsed":[
		"KHR_materials_specular",
		"KHR_materials_ior"
	],
	"scene":0,
	"scenes":[
		{
			"name":"Scene",
			"nodes":[
				0,
				1
			]
		}
	],
	"nodes":[
		{
			"mesh":0,
			"name":"bowl",
			"rotation":[
				0.7071068286895752,
				0,
				0,
				0.7071068286895752
			],
			"scale":[
				0.009999999776482582,
				0.009999999776482582,
				0.009999999776482582
			],
			"translation":[
				0,
				0.064809150993824,
				0
			]
		},
		{
			"mesh":1,
			"name":"Icosphere",
			"translation":[
				0,
				1.7071670293807983,
				0
			]
		}
	],
	"materials":[
		{
			"doubleSided":true,
			"emissiveFactor":[
				0.05999999865889549,
				0.05999999865889549,
				0.05999999865889549
			],
			"extensions":{
				"KHR_materials_specular":{
					"specularColorFactor":[
						2.371357614441398,
						2.371357614441398,
						2.371357614441398
					]
				},
				"KHR_materials_ior":{
					"ior":1.4500000476837158
				}
			},
			"name":"Steel",
			"pbrMetallicRoughness":{
				"baseColorFactor":[
					0.3366982042789459,
					0.8000000715255737,
					0.7546258568763733,
					1
				],
				"metallicFactor":0.32283487915992737,
				"roughnessFactor":0.489432692527771
			}
		},
		{
			"doubleSided":true,
			"emissiveFactor":[
				1,
				1,
				1
			],
			"emissiveTexture":{
				"index":0
			},
			"name":"Material.001",
			"pbrMetallicRoughness":{
				"baseColorFactor":[
					0,
					0,
					0,
					1
				]
			}
		}
	],
	"meshes":[
		{
			"name":"Mesh",
			"primitives":[
				{
					"attributes":{
						"POSITION":0,
						"TEXCOORD_0":1,
						"NORMAL":2
					},
					"indices":3,
					"material":0
				}
			]
		},
		{
			"name":"Icosphere",
			"primitives":[
				{
					"attributes":{
						"POSITION":4,
						"TEXCOORD_0":5,
						"NORMAL":6
					},
					"indices":7,
					"material":1
				}
			]
		}
	],
	"textures":[
		{
			"sampler":0,
			"source":0
		}
	],
	"images":[
		{
			"bufferView":8,
			"mimeType":"image/jpeg",
			"name":"pellets"
		}
	],
	"accessors":[
		{
			"bufferView":0,
			"componentType":5126,
			"count":6374,
			"max":[
				205.1748504638672,
				205.1748504638672,
				0.2908582091331482
			],
			"min":[
				-205.1748504638672,
				-205.1748504638672,
				-115.3738784790039
			],
			"type":"VEC3"
		},
		{
			"bufferView":1,
			"componentType":5126,
			"count":6374,
			"type":"VEC2"
		},
		{
			"bufferView":2,
			"componentType":5126,
			"count":6374,
			"type":"VEC3"
		},
		{
			"bufferView":3,
			"componentType":5123,
			"count":33846,
			"type":"SCALAR"
		},
		{
			"bufferView":4,
			"componentType":5126,
			"count":130,
			"max":[
				1.5958893299102783,
				-0.6752429008483887,
				1.6932157278060913
			],
			"min":[
				-1.5958881378173828,
				-1.4301003217697144,
				-1.6932157278060913
			],
			"type":"VEC3"
		},
		{
			"bufferView":5,
			"componentType":5126,
			"count":130,
			"type":"VEC2"
		},
		{
			"bufferView":6,
			"componentType":5126,
			"count":130,
			"type":"VEC3"
		},
		{
			"bufferView":7,
			"componentType":5123,
			"count":144,
			"type":"SCALAR"
		}
	],
	"bufferViews":[
		{
			"buffer":0,
			"byteLength":76488,
			"byteOffset":0,
			"target":34962
		},
		{
			"buffer":0,
			"byteLength":50992,
			"byteOffset":76488,
			"target":34962
		},
		{
			"buffer":0,
			"byteLength":76488,
			"byteOffset":127480,
			"target":34962
		},
		{
			"buffer":0,
			"byteLength":67692,
			"byteOffset":203968,
			"target":34963
		},
		{
			"buffer":0,
			"byteLength":1560,
			"byteOffset":271660,
			"target":34962
		},
		{
			"buffer":0,
			"byteLength":1040,
			"byteOffset":273220,
			"target":34962
		},
		{
			"buffer":0,
			"byteLength":1560,
			"byteOffset":274260,
			"target":34962
		},
		{
			"buffer":0,
			"byteLength":288,
			"byteOffset":275820,
			"target":34963
		},
		{
			"buffer":0,
			"byteLength":101966,
			"byteOffset":276108
		}
	],
	"samplers":[
		{
			"magFilter":9729,
			"minFilter":9987
		}
	],
	"buffers":[
		{
			"byteLength":378076,
			"uri":"data:application/octet-stream;base64,"
		}
	]
}
