{
	"asset":{
		"generator":"Khronos glTF Blender I/O v3.5.30",
		"version":"2.0"
	},
	"extensionsUsed":[
		"KHR_materials_specular",
		"KHR_materials_ior"
	],
	"scene":0,
	"scenes":[
		{
			"name":"Scene",
			"nodes":[
				0,
				1,
				2,
				3,
				4
			]
		}
	],
	"nodes":[
		{
			"mesh":0,
			"name":"Cube"
		},
		{
			"mesh":1,
			"name":"Grid",
			"scale":[
				0.8075554370880127,
				1,
				0.668537974357605
			],
			"translation":[
				0,
				0.29977190494537354,
				0.0053626541048288345
			]
		},
		{
			"mesh":2,
			"name":"poop 1",
			"rotation":[
				0,
				0.21347399055957794,
				0,
				0.9769487380981445
			],
			"scale":[
				0.13425280153751373,
				0.07704465091228485,
				0.07888782024383545
			],
			"translation":[
				-0.3040495216846466,
				0.33052027225494385,
				0
			]
		},
		{
			"mesh":3,
			"name":"poop 2",
			"rotation":[
				0,
				-0.15432175993919373,
				0,
				0.988020658493042
			],
			"scale":[
				0.06368285417556763,
				0.06368285417556763,
				0.0953686460852623
			],
			"translation":[
				-0.24636337161064148,
				0.3183429539203644,
				0.22182895243167877
			]
		},
		{
			"mesh":4,
			"name":"poop 3",
			"scale":[
				0.07266347110271454,
				0.06472420692443848,
				0.06472420692443848
			],
			"translation":[
				0.30723315477371216,
				0.32412922382354736,
				-0.294359028339386
			]
		}
	],
	"materials":[
		{
			"doubleSided":true,
			"extensions":{
				"KHR_materials_specular":{
					"specularColorFactor":[
						0.7002040394887493,
						0.7002040394887493,
						0.7002040394887493
					]
				},
				"KHR_materials_ior":{
					"ior":1.4500000476837158
				}
			},
			"name":"Material",
			"pbrMetallicRoughness":{
				"baseColorTexture":{
					"index":0
				},
				"metallicFactor":0,
				"roughnessFactor":0.7598425149917603
			}
		},
		{
			"doubleSided":true,
			"emissiveFactor":[
				0.2999976873397827,
				0.2999976873397827,
				0.2999976873397827
			],
			"emissiveTexture":{
				"index":1
			},
			"name":"Material.001",
			"pbrMetallicRoughness":{
				"baseColorFactor":[
					0,
					0,
					0,
					1
				]
			}
		},
		{
			"doubleSided":true,
			"name":"Material.006",
			"pbrMetallicRoughness":{
				"baseColorFactor":[
					0.08027052879333496,
					0.04502435401082039,
					0.0028718174435198307,
					1
				],
				"metallicFactor":0,
				"roughnessFactor":0.5
			}
		},
		{
			"doubleSided":true,
			"name":"Material.003",
			"pbrMetallicRoughness":{
				"baseColorFactor":[
					0.04696177691221237,
					0.026274925097823143,
					0.0036396391224116087,
					1
				],
				"metallicFactor":0,
				"roughnessFactor":0.5
			}
		}
	],
	"meshes":[
		{
			"name":"Cube",
			"primitives":[
				{
					"attributes":{
						"POSITION":0,
						"TEXCOORD_0":1,
						"NORMAL":2
					},
					"indices":3,
					"material":0
				}
			]
		},
		{
			"name":"Grid",
			"primitives":[
				{
					"attributes":{
						"POSITION":4,
						"TEXCOORD_0":5,
						"NORMAL":6
					},
					"indices":7,
					"material":1
				}
			]
		},
		{
			"name":"Icosphere",
			"primitives":[
				{
					"attributes":{
						"POSITION":8,
						"TEXCOORD_0":9,
						"NORMAL":10
					},
					"indices":11,
					"material":2
				}
			]
		},
		{
			"name":"Icosphere.001",
			"primitives":[
				{
					"attributes":{
						"POSITION":12,
						"TEXCOORD_0":13,
						"NORMAL":14
					},
					"indices":11,
					"material":3
				}
			]
		},
		{
			"name":"Icosphere.002",
			"primitives":[
				{
					"attributes":{
						"POSITION":15,
						"TEXCOORD_0":16,
						"NORMAL":17
					},
					"indices":11,
					"material":3
				}
			]
		}
	],
	"textures":[
		{
			"sampler":0,
			"source":0
		},
		{
			"sampler":0,
			"source":1
		}
	],
	"images":[
		{
			"bufferView":4,
			"mimeType":"image/png",
			"name":"Material Base Color"
		},
		{
			"bufferView":9,
			"mimeType":"image/jpeg",
			"name":"17568392-white-sodium-bentonite-cat-litter-or-cat-sand"
		}
	],
	"accessors":[
		{
			"bufferView":0,
			"componentType":5126,
			"count":622,
			"max":[
				1,
				0.5585210919380188,
				0.7809001803398132
			],
			"min":[
				-1,
				0.00914260745048523,
				-0.7809001803398132
			],
			"type":"VEC3"
		},
		{
			"bufferView":1,
			"componentType":5126,
			"count":622,
			"type":"VEC2"
		},
		{
			"bufferView":2,
			"componentType":5126,
			"count":622,
			"type":"VEC3"
		},
		{
			"bufferView":3,
			"componentType":5123,
			"count":1728,
			"type":"SCALAR"
		},
		{
			"bufferView":5,
			"componentType":5126,
			"count":1581,
			"max":[
				1,
				0.03295780345797539,
				1
			],
			"min":[
				-1,
				0,
				-1
			],
			"type":"VEC3"
		},
		{
			"bufferView":6,
			"componentType":5126,
			"count":1581,
			"type":"VEC2"
		},
		{
			"bufferView":7,
			"componentType":5126,
			"count":1581,
			"type":"VEC3"
		},
		{
			"bufferView":8,
			"componentType":5123,
			"count":2400,
			"type":"SCALAR"
		},
		{
			"bufferView":10,
			"componentType":5126,
			"count":63,
			"max":[
				0.9510578513145447,
				1,
				0.9999999403953552
			],
			"min":[
				-0.9510578513145447,
				-1,
				-0.9999999403953552
			],
			"type":"VEC3"
		},
		{
			"bufferView":11,
			"componentType":5126,
			"count":63,
			"type":"VEC2"
		},
		{
			"bufferView":12,
			"componentType":5126,
			"count":63,
			"type":"VEC3"
		},
		{
			"bufferView":13,
			"componentType":5123,
			"count":240,
			"type":"SCALAR"
		},
		{
			"bufferView":14,
			"componentType":5126,
			"count":63,
			"max":[
				0.9510578513145447,
				1,
				0.9999999403953552
			],
			"min":[
				-0.9510578513145447,
				-1,
				-0.9999999403953552
			],
			"type":"VEC3"
		},
		{
			"bufferView":15,
			"componentType":5126,
			"count":63,
			"type":"VEC2"
		},
		{
			"bufferView":16,
			"componentType":5126,
			"count":63,
			"type":"VEC3"
		},
		{
			"bufferView":17,
			"componentType":5126,
			"count":63,
			"max":[
				0.9510578513145447,
				1,
				0.9999999403953552
			],
			"min":[
				-0.9510578513145447,
				-1,
				-0.9999999403953552
			],
			"type":"VEC3"
		},
		{
			"bufferView":18,
			"componentType":5126,
			"count":63,
			"type":"VEC2"
		},
		{
			"bufferView":19,
			"componentType":5126,
			"count":63,
			"type":"VEC3"
		}
	],
	"bufferViews":[
		{
			"buffer":0,
			"byteLength":7464,
			"byteOffset":0,
			"target":34962
		},
		{
			"buffer":0,
			"byteLength":4976,
			"byteOffset":7464,
			"target":34962
		},
		{
			"buffer":0,
			"byteLength":7464,
			"byteOffset":12440,
			"target":34962
		},
		{
			"buffer":0,
			"byteLength":3456,
			"byteOffset":19904,
			"target":34963
		},
		{
			"buffer":0,
			"byteLength":23661,
			"byteOffset":23360
		},
		{
			"buffer":0,
			"byteLength":18972,
			"byteOffset":47024,
			"target":34962
		},
		{
			"buffer":0,
			"byteLength":12648,
			"byteOffset":65996,
			"target":34962
		},
		{
			"buffer":0,
			"byteLength":18972,
			"byteOffset":78644,
			"target":34962
		},
		{
			"buffer":0,
			"byteLength":4800,
			"byteOffset":97616,
			"target":34963
		},
		{
			"buffer":0,
			"byteLength":337769,
			"byteOffset":102416
		},
		{
			"buffer":0,
			"byteLength":756,
			"byteOffset":440188,
			"target":34962
		},
		{
			"buffer":0,
			"byteLength":504,
			"byteOffset":440944,
			"target":34962
		},
		{
			"buffer":0,
			"byteLength":756,
			"byteOffset":441448,
			"target":34962
		},
		{
			"buffer":0,
			"byteLength":480,
			"byteOffset":442204,
			"target":34963
		},
		{
			"buffer":0,
			"byteLength":756,
			"byteOffset":442684,
			"target":34962
		},
		{
			"buffer":0,
			"byteLength":504,
			"byteOffset":443440,
			"target":34962
		},
		{
			"buffer":0,
			"byteLength":756,
			"byteOffset":443944,
			"target":34962
		},
		{
			"buffer":0,
			"byteLength":756,
			"byteOffset":444700,
			"target":34962
		},
		{
			"buffer":0,
			"byteLength":504,
			"byteOffset":445456,
			"target":34962
		},
		{
			"buffer":0,
			"byteLength":756,
			"byteOffset":445960,
			"target":34962
		}
	],
	"samplers":[
		{
			"magFilter":9729,
			"minFilter":9987
		}
	],
	"buffers":[
		{
			"byteLength":446716,
			"uri":"data:application/octet-stream;base64,"
		}
	]
}
