{
	"asset":{
		"generator":"Khronos glTF Blender I/O v3.5.30",
		"version":"2.0"
	},
	"extensionsUsed":[
		"KHR_materials_specular",
		"KHR_materials_ior"
	],
	"scene":0,
	"scenes":[
		{
			"name":"Scene",
			"nodes":[
				0,
				1
			]
		}
	],
	"nodes":[
		{
			"mesh":0,
			"name":"Cube"
		},
		{
			"mesh":1,
			"name":"Grid",
			"scale":[
				0.8075554370880127,
				1,
				0.668537974357605
			],
			"translation":[
				0,
				0.29977190494537354,
				0.0053626541048288345
			]
		}
	],
	"materials":[
		{
			"doubleSided":true,
			"extensions":{
				"KHR_materials_specular":{
					"specularColorFactor":[
						0.7002040394887493,
						0.7002040394887493,
						0.7002040394887493
					]
				},
				"KHR_materials_ior":{
					"ior":1.4500000476837158
				}
			},
			"name":"Material",
			"pbrMetallicRoughness":{
				"baseColorTexture":{
					"index":0
				},
				"metallicFactor":0,
				"roughnessFactor":0.7598425149917603
			}
		},
		{
			"doubleSided":true,
			"emissiveFactor":[
				0.999997615814209,
				0.999997615814209,
				0.999997615814209
			],
			"emissiveTexture":{
				"index":1
			},
			"name":"Material.001",
			"pbrMetallicRoughness":{
				"baseColorFactor":[
					0,
					0,
					0,
					1
				]
			}
		}
	],
	"meshes":[
		{
			"name":"Cube",
			"primitives":[
				{
					"attributes":{
						"POSITION":0,
						"TEXCOORD_0":1,
						"NORMAL":2
					},
					"indices":3,
					"material":0
				}
			]
		},
		{
			"name":"Grid",
			"primitives":[
				{
					"attributes":{
						"POSITION":4,
						"TEXCOORD_0":5,
						"NORMAL":6
					},
					"indices":7,
					"material":1
				}
			]
		}
	],
	"textures":[
		{
			"sampler":0,
			"source":0
		},
		{
			"sampler":0,
			"source":1
		}
	],
	"images":[
		{
			"bufferView":4,
			"mimeType":"image/png",
			"name":"Material Base Color"
		},
		{
			"bufferView":9,
			"mimeType":"image/png",
			"name":"texture-white-sodium-bentonite-cat-litter-cat-sand-wallpaper-ba"
		}
	],
	"accessors":[
		{
			"bufferView":0,
			"componentType":5126,
			"count":622,
			"max":[
				1,
				0.5585210919380188,
				0.7809001803398132
			],
			"min":[
				-1,
				0.00914260745048523,
				-0.7809001803398132
			],
			"type":"VEC3"
		},
		{
			"bufferView":1,
			"componentType":5126,
			"count":622,
			"type":"VEC2"
		},
		{
			"bufferView":2,
			"componentType":5126,
			"count":622,
			"type":"VEC3"
		},
		{
			"bufferView":3,
			"componentType":5123,
			"count":1728,
			"type":"SCALAR"
		},
		{
			"bufferView":5,
			"componentType":5126,
			"count":1581,
			"max":[
				1,
				0.03295780345797539,
				1
			],
			"min":[
				-1,
				0,
				-1
			],
			"type":"VEC3"
		},
		{
			"bufferView":6,
			"componentType":5126,
			"count":1581,
			"type":"VEC2"
		},
		{
			"bufferView":7,
			"componentType":5126,
			"count":1581,
			"type":"VEC3"
		},
		{
			"bufferView":8,
			"componentType":5123,
			"count":2400,
			"type":"SCALAR"
		}
	],
	"bufferViews":[
		{
			"buffer":0,
			"byteLength":7464,
			"byteOffset":0,
			"target":34962
		},
		{
			"buffer":0,
			"byteLength":4976,
			"byteOffset":7464,
			"target":34962
		},
		{
			"buffer":0,
			"byteLength":7464,
			"byteOffset":12440,
			"target":34962
		},
		{
			"buffer":0,
			"byteLength":3456,
			"byteOffset":19904,
			"target":34963
		},
		{
			"buffer":0,
			"byteLength":23661,
			"byteOffset":23360
		},
		{
			"buffer":0,
			"byteLength":18972,
			"byteOffset":47024,
			"target":34962
		},
		{
			"buffer":0,
			"byteLength":12648,
			"byteOffset":65996,
			"target":34962
		},
		{
			"buffer":0,
			"byteLength":18972,
			"byteOffset":78644,
			"target":34962
		},
		{
			"buffer":0,
			"byteLength":4800,
			"byteOffset":97616,
			"target":34963
		},
		{
			"buffer":0,
			"byteLength":729593,
			"byteOffset":102416
		}
	],
	"samplers":[
		{
			"magFilter":9729,
			"minFilter":9987
		}
	],
	"buffers":[
		{
			"byteLength":832012,
			"uri":"data:application/octet-stream;base64,"
		}
	]
}
