{
	"asset":{
		"generator":"Khronos glTF Blender I/O v3.5.30",
		"version":"2.0"
	},
	"scene":0,
	"scenes":[
		{
			"name":"Scene",
			"nodes":[
				0
			]
		}
	],
	"nodes":[
		{
			"mesh":0,
			"name":"Cube",
			"scale":[
				0.3687167167663574,
				0.3687167167663574,
				0.3687167167663574
			],
			"translation":[
				0,
				0.3709907531738281,
				0
			]
		}
	],
	"materials":[
		{
			"doubleSided":true,
			"emissiveFactor":[
				1,
				1,
				1
			],
			"emissiveTexture":{
				"index":0
			},
			"name":"Material",
			"pbrMetallicRoughness":{
				"baseColorFactor":[
					0,
					0,
					0,
					1
				]
			}
		}
	],
	"meshes":[
		{
			"name":"Cube",
			"primitives":[
				{
					"attributes":{
						"POSITION":0,
						"TEXCOORD_0":1,
						"NORMAL":2
					},
					"indices":3,
					"material":0
				}
			]
		}
	],
	"textures":[
		{
			"sampler":0,
			"source":0
		}
	],
	"images":[
		{
			"bufferView":4,
			"mimeType":"image/jpeg",
			"name":"ribunny texture color fixed"
		}
	],
	"accessors":[
		{
			"bufferView":0,
			"componentType":5126,
			"count":968,
			"max":[
				1.7198065519332886,
				1.8215157985687256,
				1.4276399612426758
			],
			"min":[
				-1.7198065519332886,
				-1.0037190914154053,
				-1.5225896835327148
			],
			"type":"VEC3"
		},
		{
			"bufferView":1,
			"componentType":5126,
			"count":968,
			"type":"VEC2"
		},
		{
			"bufferView":2,
			"componentType":5126,
			"count":968,
			"type":"VEC3"
		},
		{
			"bufferView":3,
			"componentType":5123,
			"count":3072,
			"type":"SCALAR"
		}
	],
	"bufferViews":[
		{
			"buffer":0,
			"byteLength":11616,
			"byteOffset":0,
			"target":34962
		},
		{
			"buffer":0,
			"byteLength":7744,
			"byteOffset":11616,
			"target":34962
		},
		{
			"buffer":0,
			"byteLength":11616,
			"byteOffset":19360,
			"target":34962
		},
		{
			"buffer":0,
			"byteLength":6144,
			"byteOffset":30976,
			"target":34963
		},
		{
			"buffer":0,
			"byteLength":84563,
			"byteOffset":37120
		}
	],
	"samplers":[
		{
			"magFilter":9729,
			"minFilter":9987
		}
	],
	"buffers":[
		{
			"byteLength":121684,
			"uri":"data:application/octet-stream;base64,"
		}
	]
}
